<?xml version="1.0" standalone="no"?>
<!DOCTYPE svg PUBLIC "-//W3C//DTD SVG 20010904//EN"
 "http://www.w3.org/TR/2001/REC-SVG-20010904/DTD/svg10.dtd">
<svg version="1.0" xmlns="http://www.w3.org/2000/svg"
 width="24.000000pt" height="24.000000pt" viewBox="0 0 24.000000 24.000000"
 preserveAspectRatio="xMidYMid meet">

<g transform="translate(0.000000,24.000000) scale(0.100000,-0.100000)"
fill="#000000" stroke="none">
<path d="M47 224 c-4 -4 -7 -15 -7 -25 0 -9 -9 -19 -20 -22 -17 -4 -20 -14
-20 -57 0 -43 3 -53 19 -57 11 -3 21 -15 23 -27 3 -19 9 -21 78 -21 69 0 75 2
78 21 2 12 12 24 23 27 16 4 19 14 19 57 0 43 -3 53 -19 57 -11 3 -21 15 -23
27 -3 19 -10 21 -73 24 -39 1 -74 0 -78 -4z m133 -24 c0 -18 -7 -20 -60 -20
-53 0 -60 2 -60 20 0 18 7 20 60 20 53 0 60 -2 60 -20z m10 -60 c0 -5 -7 -10
-16 -10 -8 0 -12 5 -9 10 3 6 10 10 16 10 5 0 9 -4 9 -10z m-10 -85 l0 -35
-60 0 -60 0 0 35 0 35 60 0 60 0 0 -35z"/>
<path d="M80 70 c0 -5 18 -10 40 -10 22 0 40 5 40 10 0 6 -18 10 -40 10 -22 0
-40 -4 -40 -10z"/>
<path d="M98 43 c12 -2 32 -2 45 0 12 2 2 4 -23 4 -25 0 -35 -2 -22 -4z"/>
</g>
</svg>
